# xmcd
#
# Track frame offsets:
#	187
#	15212
#	26957
#	43747
#	59155
#	76402
#	92160
#	107685
#	125967
#	141085
#
# Disc length: 2057 seconds
#
# Revision: 6
# Processed by: cddbd v1.5.1PL2 Copyright (c) Steve Scherf et al.
# Submitted via: dBpowerAMP V4.0
#
DISCID=8b08070a
DTITLE=Martina McBride - The Way That I Am
DYEAR=1993
DGENRE=Country
TTITLE0=Heart Trouble
TTITLE1=My Baby Loves Me
TTITLE2=That Wasn't Me
TTITLE3=Independence Day
TTITLE4=Where I Used To Have A Heart
TTITLE5=Goin' To Work
TTITLE6=She Ain't Seen Nothing Yet
TTITLE7=Life #9
TTITLE8=Strangers
TTITLE9=Ashes
EXTD=
EXTT0=
EXTT1=
EXTT2=
EXTT3=
EXTT4=
EXTT5=
EXTT6=
EXTT7=
EXTT8=
EXTT9=
PLAYORDER=
